<svg width="320" height="500" viewBox="0 0 320 500" fill="none" xmlns="http://www.w3.org/2000/svg">
<g id="iPod">
<g id="Shell">
<g id="Shell_2">
<rect width="320" height="500" rx="30" fill="#FEFEFE"/>
<rect x="1" y="1" width="318" height="498" rx="29" stroke="black" stroke-opacity="0.2" stroke-width="2"/>
</g>
</g>
<g id="ScrollWheel">
<g id="TouchRing">
<ellipse id="Outer" cx="160" cy="365.455" rx="94.1176" ry="90.9091" fill="url(#paint0_linear_13_68)"/>
</g>
<g id="SelectButton">
<ellipse id="Inner" cx="160.471" cy="365" rx="35.2941" ry="34.0909" fill="url(#paint1_radial_13_68)"/>
</g>
<g id="BackButton">
<rect id="BackBox" x="67.7647" y="349.091" width="28.2353" height="31.8182" fill="#D9D9D9" fill-opacity="0.01"/>
<path id="Back" d="M81.5492 360.09C81.8593 359.868 82.2982 360.082 82.2982 360.455V364.268C82.2982 364.343 82.386 364.386 82.448 364.341L88.4057 360.09C88.7158 359.868 89.1547 360.082 89.1547 360.455V370.454C89.1547 370.827 88.7158 371.041 88.4056 370.819L82.448 366.567C82.386 366.523 82.2982 366.566 82.2982 366.64L82.2982 370.454C82.2982 370.827 81.8593 371.041 81.5492 370.819L74.5436 365.819C74.2894 365.638 74.2894 365.271 74.5436 365.089L81.5492 360.09Z" fill="#F5F5F5"/>
</g>
<g id="SkipButton">
<rect id="SkipBox" x="224.941" y="349.091" width="28.2353" height="31.8182" fill="#D9D9D9" fill-opacity="0.01"/>
<path id="skip" d="M239.135 360.09C238.825 359.868 238.386 360.082 238.386 360.455L238.386 364.268C238.386 364.343 238.298 364.386 238.236 364.341L232.278 360.09C231.968 359.868 231.529 360.082 231.529 360.455V370.454C231.529 370.827 231.968 371.041 232.278 370.819L238.236 366.567C238.298 366.523 238.386 366.566 238.386 366.64L238.386 370.454C238.386 370.827 238.825 371.041 239.135 370.819L246.141 365.819C246.395 365.638 246.395 365.271 246.141 365.089L239.135 360.09Z" fill="#F5F5F5"/>
</g>
<g id="PlayPauseButton">
<rect id="PlayPauseBox" x="144" y="420.909" width="32.9412" height="31.8182" fill="#D9D9D9" fill-opacity="0.01"/>
<g id="PlayPause">
<g id="shape">
<path d="M161.345 431.818C161.122 431.818 160.941 431.993 160.941 432.208V442.338C160.941 442.553 161.122 442.727 161.345 442.727H163.765C163.987 442.727 164.168 442.553 164.168 442.338V432.208C164.168 431.993 163.987 431.818 163.765 431.818H161.345Z" fill="#F5F5F5"/>
<path d="M167.798 431.818C167.576 431.818 167.395 431.993 167.395 432.208V442.338C167.395 442.553 167.576 442.727 167.798 442.727H170.218C170.441 442.727 170.622 442.553 170.622 442.338V432.208C170.622 431.993 170.441 431.818 170.218 431.818H167.798Z" fill="#F5F5F5"/>
</g>
<path id="shape_2" d="M149.647 432.182C149.647 431.884 149.998 431.713 150.246 431.89L157.379 436.98C157.583 437.126 157.583 437.419 157.379 437.565L150.246 442.656C149.998 442.833 149.647 442.662 149.647 442.363L149.647 432.182Z" fill="#F5F5F5"/>
</g>
</g>
<g id="MenuButton">
<rect id="MenuBox" x="135" y="285" width="52.53" height="27.2727" fill="#D9D9D9" fill-opacity="0.01"/>
<path id="MENU" d="M143.998 295.031H145.509L148.035 301.988L150.555 295.031H152.072L148.638 304.273H147.426L143.998 295.031ZM143.237 295.031H144.716L144.982 301.423V304.273H143.237V295.031ZM151.349 295.031H152.834V304.273H151.089V301.423L151.349 295.031ZM160.737 302.902V304.273H155.824V302.902H160.737ZM156.357 295.031V304.273H154.612V295.031H156.357ZM160.096 298.845V300.185H155.824V298.845H160.096ZM160.718 295.031V296.408H155.824V295.031H160.718ZM169.376 295.031V304.273H167.624L163.695 297.862V304.273H161.949V295.031H163.695L167.637 301.448V295.031H169.376ZM176.295 295.031H178.041V301.169C178.041 301.875 177.888 302.47 177.584 302.952C177.279 303.431 176.864 303.792 176.34 304.038C175.815 304.279 175.218 304.4 174.55 304.4C173.872 304.4 173.269 304.279 172.74 304.038C172.211 303.792 171.797 303.431 171.496 302.952C171.196 302.47 171.046 301.875 171.046 301.169V295.031H172.791V301.169C172.791 301.6 172.863 301.954 173.007 302.229C173.151 302.5 173.354 302.701 173.616 302.832C173.879 302.963 174.19 303.029 174.55 303.029C174.913 303.029 175.224 302.963 175.483 302.832C175.745 302.701 175.946 302.5 176.086 302.229C176.225 301.954 176.295 301.6 176.295 301.169V295.031Z" fill="white"/>
</g>
</g>
<g id="Screen">
<g id="Bezle">
<path d="M26.3529 34.5454C26.3529 29.0226 30.8301 24.5454 36.3529 24.5454H284.588C290.111 24.5454 294.588 29.0226 294.588 34.5454V219.091C294.588 224.614 290.111 229.091 284.588 229.091H36.3529C30.8301 229.091 26.3529 224.614 26.3529 219.091V34.5454Z" fill="#434343" fill-opacity="0.8"/>
<path d="M26.3529 34.5454C26.3529 29.0226 30.8301 24.5454 36.3529 24.5454H284.588C290.111 24.5454 294.588 29.0226 294.588 34.5454V219.091C294.588 224.614 290.111 229.091 284.588 229.091H36.3529C30.8301 229.091 26.3529 224.614 26.3529 219.091V34.5454Z" fill="#434343" fill-opacity="0.8"/>
</g>
<g id="Display" filter="url(#filter0_i_13_68)">
<path d="M31.0588 29.0909H289.882V224.545H31.0588V29.0909Z" fill="#EDF6FF"/>
<path d="M31.0588 29.0909H289.882V224.545H31.0588V29.0909Z" fill="#EDF6FF"/>
</g>
<g id="Header">
<rect id="Rectangle 5" x="31.0588" y="29.0909" width="258.824" height="22.7273" fill="url(#paint2_linear_13_68)"/>
</g>
</g>
</g>
<defs>
<filter id="filter0_i_13_68" x="31.0588" y="29.0909" width="258.824" height="199.455" filterUnits="userSpaceOnUse" color-interpolation-filters="sRGB">
<feFlood flood-opacity="0" result="BackgroundImageFix"/>
<feBlend mode="normal" in="SourceGraphic" in2="BackgroundImageFix" result="shape"/>
<feColorMatrix in="SourceAlpha" type="matrix" values="0 0 0 0 0 0 0 0 0 0 0 0 0 0 0 0 0 0 127 0" result="hardAlpha"/>
<feOffset dy="4"/>
<feGaussianBlur stdDeviation="2"/>
<feComposite in2="hardAlpha" operator="arithmetic" k2="-1" k3="1"/>
<feColorMatrix type="matrix" values="0 0 0 0 0 0 0 0 0 0 0 0 0 0 0 0 0 0 0.25 0"/>
<feBlend mode="normal" in2="shape" result="effect1_innerShadow_13_68"/>
</filter>
<linearGradient id="paint0_linear_13_68" x1="254.118" y1="285" x2="82.7788" y2="412.452" gradientUnits="userSpaceOnUse">
<stop stop-color="#CED5DF"/>
<stop offset="0.0844788" stop-color="#E1E1E1"/>
<stop offset="0.349197" stop-color="#CCCCCC"/>
<stop offset="0.982874" stop-color="#A8A8A8"/>
</linearGradient>
<radialGradient id="paint1_radial_13_68" cx="0" cy="0" r="1" gradientUnits="userSpaceOnUse" gradientTransform="translate(160 399.091) rotate(-90) scale(101.364 104.941)">
<stop stop-color="#FCFCFE"/>
<stop offset="0.372432" stop-color="#DCDCDD"/>
<stop offset="0.548973" stop-color="#B3B3B5"/>
<stop offset="1" stop-color="#979798"/>
</radialGradient>
<linearGradient id="paint2_linear_13_68" x1="160" y1="51.8182" x2="160" y2="29.0909" gradientUnits="userSpaceOnUse">
<stop stop-color="#95AFBE"/>
<stop offset="0.725245" stop-color="#D6E2F2"/>
</linearGradient>
</defs>
</svg>
