<svg width="500" height="320" viewBox="0 0 500 320" fill="none" xmlns="http://www.w3.org/2000/svg">
<g id="iPod-landscape">
<g id="Shell">
<g id="Shell_2">
<rect y="320" width="320" height="500" rx="30" transform="rotate(-90 0 320)" fill="#FEFEFE"/>
<rect x="1" y="319" width="318" height="498" rx="29" transform="rotate(-90 1 319)" stroke="black" stroke-opacity="0.2" stroke-width="2"/>
</g>
</g>
<g id="ScrollWheel">
<g id="TouchRing">
<ellipse id="Outer" cx="365.454" cy="160" rx="90.9091" ry="94.1176" fill="url(#paint0_linear_2099_45)"/>
</g>
<g id="SelectButton">
<ellipse id="Inner" cx="365.909" cy="159.529" rx="34.0909" ry="35.2941" fill="url(#paint1_radial_2099_45)"/>
</g>
<g id="BackButton">
<rect id="BackBox" x="276.364" y="143.059" width="27.2727" height="32.9412" fill="#D9D9D9" fill-opacity="0.01"/>
<path id="Back" d="M289.678 154.446C289.978 154.217 290.402 154.438 290.402 154.824V158.772C290.402 158.849 290.486 158.893 290.546 158.848L296.301 154.446C296.601 154.217 297.024 154.438 297.024 154.824V165.176C297.024 165.562 296.6 165.783 296.301 165.554L290.546 161.152C290.486 161.106 290.402 161.15 290.402 161.228L290.402 165.176C290.402 165.562 289.978 165.783 289.678 165.554L282.911 160.378C282.666 160.19 282.666 159.81 282.911 159.622L289.678 154.446Z" fill="#F5F5F5"/>
</g>
<g id="SkipButton">
<rect id="SkipBox" x="428.182" y="143.059" width="27.2727" height="32.9412" fill="#D9D9D9" fill-opacity="0.01"/>
<path id="skip" d="M441.892 154.446C441.592 154.217 441.168 154.438 441.168 154.824L441.168 158.772C441.168 158.849 441.083 158.893 441.023 158.848L435.269 154.446C434.969 154.217 434.545 154.438 434.545 154.824V165.176C434.545 165.562 434.969 165.783 435.269 165.554L441.023 161.152C441.083 161.106 441.168 161.15 441.168 161.228L441.168 165.176C441.168 165.562 441.592 165.783 441.892 165.554L448.658 160.378C448.904 160.19 448.904 159.81 448.658 159.622L441.892 154.446Z" fill="#F5F5F5"/>
</g>
<g id="PlayPauseButton">
<rect id="PlayPauseBox" x="350" y="217.412" width="31.8182" height="32.9412" fill="#D9D9D9" fill-opacity="0.01"/>
<g id="PlayPause">
<g id="shape">
<path d="M366.753 228.706C366.538 228.706 366.364 228.886 366.364 229.109V239.597C366.364 239.819 366.538 240 366.753 240H369.091C369.306 240 369.481 239.819 369.481 239.597V229.109C369.481 228.886 369.306 228.706 369.091 228.706H366.753Z" fill="#F5F5F5"/>
<path d="M372.987 228.706C372.772 228.706 372.597 228.886 372.597 229.109V239.597C372.597 239.819 372.772 240 372.987 240H375.325C375.54 240 375.714 239.819 375.714 239.597V229.109C375.714 228.886 375.54 228.706 375.325 228.706H372.987Z" fill="#F5F5F5"/>
</g>
<path id="shape_2" d="M355.455 229.083C355.455 228.774 355.794 228.597 356.034 228.78L362.923 234.05C363.12 234.201 363.12 234.505 362.923 234.655L356.034 239.926C355.794 240.109 355.455 239.932 355.455 239.623L355.455 229.083Z" fill="#F5F5F5"/>
</g>
</g>
<g id="MenuButton">
<rect id="MenuBox" x="339" y="76" width="56.2727" height="28.2353" fill="#D9D9D9" fill-opacity="0.01"/>
<path id="MENU" d="M348.522 86.2872H350.033L352.559 93.2443L355.079 86.2872H356.596L353.162 95.5294H351.95L348.522 86.2872ZM347.76 86.2872H349.24L349.506 92.6793V95.5294H347.76V86.2872ZM355.873 86.2872H357.358V95.5294H355.613V92.6793L355.873 86.2872ZM365.261 94.1583V95.5294H360.348V94.1583H365.261ZM360.881 86.2872V95.5294H359.135V86.2872H360.881ZM364.62 90.1022V91.4415H360.348V90.1022H364.62ZM365.242 86.2872V87.6647H360.348V86.2872H365.242ZM373.9 86.2872V95.5294H372.148L368.219 89.1183V95.5294H366.473V86.2872H368.219L372.161 92.7047V86.2872H373.9ZM380.819 86.2872H382.565V92.4254C382.565 93.1321 382.412 93.7267 382.108 94.2091C381.803 94.6873 381.388 95.0491 380.864 95.2946C380.339 95.5358 379.742 95.6564 379.073 95.6564C378.396 95.6564 377.793 95.5358 377.264 95.2946C376.735 95.0491 376.321 94.6873 376.02 94.2091C375.72 93.7267 375.57 93.1321 375.57 92.4254V86.2872H377.315V92.4254C377.315 92.8571 377.387 93.2104 377.531 93.4855C377.675 93.7563 377.878 93.9573 378.14 94.0885C378.403 94.2197 378.714 94.2853 379.073 94.2853C379.437 94.2853 379.748 94.2197 380.007 94.0885C380.269 93.9573 380.47 93.7563 380.61 93.4855C380.749 93.2104 380.819 92.8571 380.819 92.4254V86.2872Z" fill="white"/>
</g>
</g>
<g id="Screen">
<g id="Bezle">
<path d="M34.5454 293.647C29.0226 293.647 24.5454 289.17 24.5454 283.647L24.5454 35.4118C24.5454 29.8889 29.0226 25.4118 34.5454 25.4118H219.091C224.614 25.4118 229.091 29.8889 229.091 35.4118L229.091 283.647C229.091 289.17 224.614 293.647 219.091 293.647H34.5454Z" fill="#434343" fill-opacity="0.8"/>
<path d="M34.5454 293.647C29.0226 293.647 24.5454 289.17 24.5454 283.647L24.5454 35.4118C24.5454 29.8889 29.0226 25.4118 34.5454 25.4118H219.091C224.614 25.4118 229.091 29.8889 229.091 35.4118L229.091 283.647C229.091 289.17 224.614 293.647 219.091 293.647H34.5454Z" fill="#434343" fill-opacity="0.8"/>
</g>
<g id="Display" filter="url(#filter0_i_2099_45)">
<path d="M29.0909 288.941L29.0909 30.1176H224.545L224.545 288.941H29.0909Z" fill="#EDF6FF"/>
<path d="M29.0909 288.941L29.0909 30.1176H224.545L224.545 288.941H29.0909Z" fill="#EDF6FF"/>
</g>
<g id="Header">
<rect id="Rectangle 5" x="28.1818" y="30.1176" width="196.364" height="23.5294" fill="url(#paint2_linear_2099_45)"/>
</g>
</g>
</g>
<defs>
<filter id="filter0_i_2099_45" x="29.0909" y="30.1176" width="195.455" height="262.824" filterUnits="userSpaceOnUse" color-interpolation-filters="sRGB">
<feFlood flood-opacity="0" result="BackgroundImageFix"/>
<feBlend mode="normal" in="SourceGraphic" in2="BackgroundImageFix" result="shape"/>
<feColorMatrix in="SourceAlpha" type="matrix" values="0 0 0 0 0 0 0 0 0 0 0 0 0 0 0 0 0 0 127 0" result="hardAlpha"/>
<feOffset dy="4"/>
<feGaussianBlur stdDeviation="2"/>
<feComposite in2="hardAlpha" operator="arithmetic" k2="-1" k3="1"/>
<feColorMatrix type="matrix" values="0 0 0 0 0 0 0 0 0 0 0 0 0 0 0 0 0 0 0.25 0"/>
<feBlend mode="normal" in2="shape" result="effect1_innerShadow_2099_45"/>
</filter>
<linearGradient id="paint0_linear_2099_45" x1="456.364" y1="76.7059" x2="282.859" y2="197.119" gradientUnits="userSpaceOnUse">
<stop stop-color="#CED5DF"/>
<stop offset="0.0844788" stop-color="#E1E1E1"/>
<stop offset="0.349197" stop-color="#CCCCCC"/>
<stop offset="0.982874" stop-color="#A8A8A8"/>
</linearGradient>
<radialGradient id="paint1_radial_2099_45" cx="0" cy="0" r="1" gradientUnits="userSpaceOnUse" gradientTransform="translate(365.455 194.824) rotate(-90) scale(104.941 101.364)">
<stop stop-color="#FCFCFE"/>
<stop offset="0.372432" stop-color="#DCDCDD"/>
<stop offset="0.548973" stop-color="#B3B3B5"/>
<stop offset="1" stop-color="#979798"/>
</radialGradient>
<linearGradient id="paint2_linear_2099_45" x1="126.007" y1="53.6471" x2="126.007" y2="30.1176" gradientUnits="userSpaceOnUse">
<stop stop-color="#95AFBE"/>
<stop offset="0.725245" stop-color="#D6E2F2"/>
</linearGradient>
</defs>
</svg>
